# xmcd
#
# Track frame offsets: 
#        150
#        15668
#        41673
#        66871
#        79998
#        95843
#        113345
#        129835
#        140887
#        155146
#
# Disc length: 2327 seconds
#
# Revision: 0
# Processed by: cddbd v1.5.2PL0 Copyright (c) Steve Scherf et al.
# Submitted via: ExactAudioCopy v1.3
#
DISCID=8709150a
DTITLE=B. J. Thomas - The Best Of B. J. Thomas Gospel Live
DYEAR=2005
DGENRE=Gospel
TTITLE0=Old Rugged Cross
TTITLE1=Just A Closer Walk With Thee
TTITLE2=Would They Love Him Down In Shreveport
TTITLE3=Home Where I Belong
TTITLE4=Happy Man
TTITLE5=Amazing Grace
TTITLE6=What A Difference You've Made In My Life
TTITLE7=Doctor God
TTITLE8=Mighty Clouds Of Joy
TTITLE9=Jesus Hearted People
EXTD=
EXTT0=
EXTT1=
EXTT2=
EXTT3=
EXTT4=
EXTT5=
EXTT6=
EXTT7=
EXTT8=
EXTT9=
PLAYORDER=
